<svg width="51" height="52" viewBox="0 0 51 52" fill="none" xmlns="http://www.w3.org/2000/svg">
<path d="M1 48.3243V4C1 2.34315 2.34315 1 4 1H31.7703C33.4271 1 34.7703 2.34315 34.7703 4V15.5676C37.2725 17.0314 38.2767 18.4985 39.4054 22.1892C40.0091 19.3374 40.8136 17.8692 43.3784 15.5676V4C43.3784 2.34315 44.7215 1 46.3784 1H47C48.6569 1 50 2.34314 50 4V48.3243C50 49.9812 48.6569 51.3243 47 51.3243H4C2.34315 51.3243 1 49.9812 1 48.3243Z" fill="#FDFF96" stroke="#FDFF96"/>
<path d="M41 13.6554C41 14.5697 40.2588 15.3108 39.3446 15.3108C38.4303 15.3108 37.6892 14.5697 37.6892 13.6554C37.6892 12.7412 38.4303 12 39.3446 12C40.2588 12 41 12.7412 41 13.6554Z" fill="#459BFF"/>
<path d="M35.2703 10.6013C35.2703 10.3252 35.0464 10.1013 34.7703 10.1013C34.4941 10.1013 34.2703 10.3252 34.2703 10.6013H35.2703ZM34.7703 15.5675H34.2703V15.7953L34.4421 15.9448L34.7703 15.5675ZM39.4054 21.8581L38.9542 22.0736L39.4424 23.0954L39.8686 22.0463L39.4054 21.8581ZM43.3784 15.5675L43.7446 15.908L43.8784 15.764V15.5675H43.3784ZM43.8784 3.64862C43.8784 3.37248 43.6545 3.14862 43.3784 3.14862C43.1022 3.14862 42.8784 3.37248 42.8784 3.64862H43.8784ZM34.2703 10.6013V15.5675H35.2703V10.6013H34.2703ZM34.4421 15.9448C36.6043 17.8259 37.5646 19.1649 38.9542 22.0736L39.8566 21.6425C38.4188 18.6332 37.3814 17.1766 35.0985 15.1903L34.4421 15.9448ZM39.8686 22.0463C41.0042 19.2512 41.8556 17.94 43.7446 15.908L43.0122 15.2271C41.0387 17.35 40.1224 18.7648 38.9422 21.6699L39.8686 22.0463ZM43.8784 15.5675V3.64862H42.8784V15.5675H43.8784Z" fill="black"/>
<path d="M1 6.2973V46.6892V48.3243C1 49.9812 2.34315 51.3243 4 51.3243H21.1959H34.4392" stroke="black" stroke-linecap="round" stroke-linejoin="round"/>
<path d="M50 25.8311V44.3716" stroke="black" stroke-linecap="round" stroke-linejoin="round"/>
<path d="M13.25 1.33105H28.4797" stroke="black" stroke-linecap="round" stroke-linejoin="round"/>
</svg>
