<svg width="192" height="201" viewBox="0 0 192 201" fill="none" xmlns="http://www.w3.org/2000/svg">
<path d="M147.281 151H45.7188C39.2466 151 34 145.292 34 138.25V61.75C34 54.7083 39.2466 49 45.7188 49H147.281C153.753 49 159 54.7083 159 61.75V138.25C159 145.292 153.753 151 147.281 151ZM61.3438 63.875C53.793 63.875 47.6719 70.5347 47.6719 78.75C47.6719 86.9652 53.793 93.625 61.3438 93.625C68.8945 93.625 75.0156 86.9652 75.0156 78.75C75.0156 70.5347 68.8945 63.875 61.3438 63.875ZM49.625 134H143.375V104.25L122.009 81.0038C120.865 79.7591 119.01 79.7591 117.866 81.0038L84.7812 117L71.2278 102.254C70.0837 101.009 68.2288 101.009 67.0845 102.254L49.625 121.25V134Z" fill="black"/>
</svg>
