<svg width="192" height="192" viewBox="0 0 192 192" fill="none" xmlns="http://www.w3.org/2000/svg">
<path d="M136.964 148H56.0357C49.9408 148 45 143.059 45 136.964V56.0357C45 49.9408 49.9408 45 56.0357 45H136.964C143.059 45 148 49.9408 148 56.0357V136.964C148 143.059 143.059 148 136.964 148ZM89.9048 125.455L132.208 83.1516C133.645 81.7151 133.645 79.3859 132.208 77.9494L127.006 72.7472C125.57 71.3108 123.24 71.3105 121.804 72.7472L87.3036 107.247L71.1963 91.1399C69.7598 89.7034 67.4305 89.7034 65.9938 91.1399L60.7916 96.3421C59.3552 97.7785 59.3552 100.108 60.7916 101.544L84.7024 125.455C86.1391 126.892 88.4681 126.892 89.9048 125.455Z" fill="black"/>
</svg>
