<svg width="1013" height="823" viewBox="0 0 1013 823" fill="none" xmlns="http://www.w3.org/2000/svg">
<rect width="1013" height="823" fill="white"/>
<path d="M76.9995 170.509C76.9995 169.405 76.1041 168.509 74.9995 168.509C73.8949 168.509 72.9995 169.405 72.9995 170.509H76.9995ZM74.9995 210.873H72.9995V211.784L73.6872 212.382L74.9995 210.873ZM112.692 262L110.887 262.862L112.84 266.947L114.545 262.753L112.692 262ZM145 210.873L146.464 212.235L147 211.659V210.873H145ZM147 114C147 112.895 146.104 112 145 112C143.895 112 143 112.895 143 114H147ZM72.9995 170.509V210.873H76.9995V170.509H72.9995ZM73.6872 212.382C91.5195 227.888 99.4878 239.014 110.887 262.862L114.496 261.137C102.904 236.886 94.6274 225.29 76.3119 209.363L73.6872 212.382ZM114.545 262.753C123.871 239.809 130.929 228.938 146.464 212.235L143.535 209.511C127.662 226.577 120.345 237.862 110.839 261.247L114.545 262.753ZM147 210.873V114H143V210.873H147Z" fill="#E2E2E2"/>
<circle cx="112.5" cy="225.5" r="7.5" fill="white" stroke="#E2E2E2" stroke-width="4"/>
<path d="M644 351.509C644 350.405 643.105 349.509 642 349.509C640.895 349.509 640 350.405 640 351.509H644ZM642 391.873H640V392.784L640.688 393.382L642 391.873ZM679.692 443L677.888 443.863L679.84 447.947L681.545 443.753L679.692 443ZM712 391.873L713.464 393.235L714 392.659V391.873H712ZM714 295C714 293.895 713.105 293 712 293C710.895 293 710 293.895 710 295H714ZM640 351.509V391.873H644V351.509H640ZM640.688 393.382C658.52 408.888 666.488 420.014 677.888 443.863L681.497 442.137C669.905 417.886 661.628 406.29 643.312 390.364L640.688 393.382ZM681.545 443.753C690.872 420.809 697.929 409.938 713.464 393.235L710.536 390.511C694.662 407.577 687.345 418.862 677.84 442.247L681.545 443.753ZM714 391.873V295H710V391.873H714Z" fill="#E2E2E2"/>
<circle cx="679.5" cy="406.5" r="7.5" fill="white" stroke="#E2E2E2" stroke-width="4"/>
<path d="M332 637.509C332 636.404 331.105 635.509 330 635.509C328.895 635.509 328 636.404 328 637.509H332ZM330 677.873H328V678.784L328.688 679.382L330 677.873ZM367.692 729L365.888 729.862L367.84 733.947L369.545 729.753L367.692 729ZM400 677.873L401.464 679.235L402 678.659V677.873H400ZM402 581C402 579.895 401.105 579 400 579C398.895 579 398 579.895 398 581H402ZM328 637.509V677.873H332V637.509H328ZM328.688 679.382C346.52 694.888 354.488 706.013 365.888 729.862L369.497 728.137C357.905 703.886 349.628 692.29 331.312 676.363L328.688 679.382ZM369.545 729.753C378.872 706.808 385.929 695.938 401.464 679.235L398.536 676.51C382.662 693.577 375.345 704.862 365.84 728.247L369.545 729.753ZM402 677.873V581H398V677.873H402Z" fill="#E2E2E2"/>
<circle cx="367.5" cy="692.5" r="7.5" fill="white" stroke="#E2E2E2" stroke-width="4"/>
<path d="M448 86.5091C448 85.4045 447.104 84.5091 446 84.5091C444.895 84.5091 444 85.4045 444 86.5091H448ZM446 126.873H444V127.784L444.687 128.382L446 126.873ZM483.692 178L481.887 178.862L483.84 182.947L485.545 178.753L483.692 178ZM516 126.873L517.464 128.235L518 127.659V126.873H516ZM518 30C518 28.8954 517.104 28 516 28C514.895 28 514 28.8954 514 30H518ZM444 86.5091V126.873H448V86.5091H444ZM444.687 128.382C462.519 143.888 470.488 155.014 481.887 178.862L485.496 177.137C473.904 152.886 465.627 141.29 447.312 125.363L444.687 128.382ZM485.545 178.753C494.871 155.809 501.929 144.938 517.464 128.235L514.535 125.511C498.662 142.577 491.345 153.862 481.839 177.247L485.545 178.753ZM518 126.873V30H514V126.873H518Z" fill="#E2E2E2"/>
<circle cx="483.5" cy="141.5" r="7.5" fill="white" stroke="#E2E2E2" stroke-width="4"/>
<rect x="303" y="264" width="62" height="59" rx="5" fill="white" stroke="#E2E2E2" stroke-width="4"/>
<rect x="824" y="641" width="62" height="59" rx="5" fill="white" stroke="#E2E2E2" stroke-width="4"/>
<rect x="48.0005" y="482" width="62" height="59" rx="5" fill="white" stroke="#E2E2E2" stroke-width="4"/>
<path d="M316 291.727L324.604 307L353 283" stroke="#E2E2E2" stroke-width="4" stroke-linecap="round" stroke-linejoin="round"/>
<path d="M837 668.727L845.604 684L874 660" stroke="#E2E2E2" stroke-width="4" stroke-linecap="round" stroke-linejoin="round"/>
<path d="M61.0005 509.727L69.6051 525L98.0005 501" stroke="#E2E2E2" stroke-width="4" stroke-linecap="round" stroke-linejoin="round"/>
<path d="M874 216.5V207.267C874 201.995 876.095 196.939 879.822 193.211V193.211C883.55 189.483 888.606 187.389 893.879 187.389H897.789C903.061 187.389 908.117 189.483 911.845 193.211V193.211C915.573 196.939 917.667 201.995 917.667 207.267V216.5" stroke="#E2E2E2" stroke-width="4"/>
<circle cx="895.834" cy="165.556" r="12.5555" stroke="#E2E2E2" stroke-width="4"/>
<path d="M578 793.5V784.196C578 778.884 580.111 773.789 583.867 770.033V770.033C587.624 766.277 592.718 764.166 598.031 764.166H601.97C607.283 764.166 612.377 766.277 616.134 770.033V770.033C619.89 773.789 622 778.884 622 784.196V793.5" stroke="#E2E2E2" stroke-width="4"/>
<circle cx="600" cy="742.167" r="12.6667" stroke="#E2E2E2" stroke-width="4"/>
<path d="M79.1406 788.703V777.92C79.1406 771.762 81.5867 765.857 85.9406 761.503V761.503C90.2946 757.149 96.1998 754.703 102.357 754.703H106.924C113.081 754.703 118.987 757.149 123.341 761.503V761.503C127.695 765.857 130.141 771.762 130.141 777.92V788.703" stroke="#E2E2E2" stroke-width="4"/>
<circle cx="104.641" cy="729.203" r="15" stroke="#E2E2E2" stroke-width="4"/>
<path d="M905.85 471H831.15C828.859 471 827 472.53 827 474.417V508.583C827 510.47 828.859 512 831.15 512H905.85C908.142 512 910 510.47 910 508.583V474.417C910 472.53 908.142 471 905.85 471ZM833.225 506.875V500.042C837.81 500.042 841.525 503.101 841.525 506.875H833.225ZM833.225 482.958V476.125H841.525C841.525 479.899 837.81 482.958 833.225 482.958ZM868.5 501.75C862.769 501.75 858.125 497.16 858.125 491.5C858.125 485.839 862.771 481.25 868.5 481.25C874.23 481.25 878.875 485.839 878.875 491.5C878.875 497.162 874.229 501.75 868.5 501.75ZM903.775 506.875H895.475C895.475 503.101 899.191 500.042 903.775 500.042V506.875ZM903.775 482.958C899.191 482.958 895.475 479.899 895.475 476.125H903.775V482.958Z" fill="#E2E2E2"/>
<path d="M296.85 63H222.15C219.858 63 218 64.53 218 66.4167V100.583C218 102.47 219.858 104 222.15 104H296.85C299.142 104 301 102.47 301 100.583V66.4167C301 64.53 299.142 63 296.85 63ZM224.225 98.875V92.0417C228.809 92.0417 232.525 95.1007 232.525 98.875H224.225ZM224.225 74.9583V68.125H232.525C232.525 71.8993 228.809 74.9583 224.225 74.9583ZM259.5 93.75C253.769 93.75 249.125 89.1599 249.125 83.5C249.125 77.839 253.77 73.25 259.5 73.25C265.23 73.25 269.875 77.839 269.875 83.5C269.875 89.1621 265.228 93.75 259.5 93.75ZM294.775 98.875H286.475C286.475 95.1007 290.191 92.0417 294.775 92.0417V98.875ZM294.775 74.9583C290.191 74.9583 286.475 71.8993 286.475 68.125H294.775V74.9583Z" fill="#E2E2E2"/>
<path d="M617.6 640.2C621.245 640.2 624.2 637.245 624.2 633.6C624.2 629.955 621.245 627 617.6 627C613.954 627 611 629.955 611 633.6C611 637.245 613.954 640.2 617.6 640.2Z" stroke="#E2E2E2" stroke-width="4" stroke-linecap="round" stroke-linejoin="round"/>
<path d="M617.6 616C612.932 616 608.456 617.854 605.155 621.155C601.854 624.456 600 628.932 600 633.6C600 637.762 600.884 640.486 603.3 643.5L617.6 660L631.9 643.5C634.316 640.486 635.2 637.762 635.2 633.6C635.2 628.932 633.346 624.456 630.045 621.155C626.744 617.854 622.268 616 617.6 616V616Z" stroke="#E2E2E2" stroke-width="4" stroke-linecap="round" stroke-linejoin="round"/>
<path d="M678.6 63.2C682.245 63.2 685.2 60.2451 685.2 56.6C685.2 52.955 682.245 50 678.6 50C674.954 50 672 52.955 672 56.6C672 60.2451 674.954 63.2 678.6 63.2Z" stroke="#E2E2E2" stroke-width="4" stroke-linecap="round" stroke-linejoin="round"/>
<path d="M678.6 39C673.932 39 669.455 40.8543 666.154 44.1549C662.854 47.4556 661 51.9322 661 56.6C661 60.7624 661.884 63.486 664.3 66.5L678.6 83L692.9 66.5C695.315 63.486 696.2 60.7624 696.2 56.6C696.2 51.9322 694.345 47.4556 691.045 44.1549C687.744 40.8543 683.267 39 678.6 39V39Z" stroke="#E2E2E2" stroke-width="4" stroke-linecap="round" stroke-linejoin="round"/>
<path d="M170.6 387.2C174.246 387.2 177.2 384.245 177.2 380.6C177.2 376.955 174.246 374 170.6 374C166.955 374 164 376.955 164 380.6C164 384.245 166.955 387.2 170.6 387.2Z" stroke="#E2E2E2" stroke-width="4" stroke-linecap="round" stroke-linejoin="round"/>
<path d="M170.6 363C165.932 363 161.456 364.854 158.155 368.155C154.854 371.456 153 375.932 153 380.6C153 384.762 153.884 387.486 156.3 390.5L170.6 407L184.9 390.5C187.316 387.486 188.2 384.762 188.2 380.6C188.2 375.932 186.346 371.456 183.045 368.155C179.744 364.854 175.268 363 170.6 363V363Z" stroke="#E2E2E2" stroke-width="4" stroke-linecap="round" stroke-linejoin="round"/>
<path d="M365.857 446.5V448.5H367.857H373.429C375.659 448.5 377 450.031 377 451.375V454.25H329V451.375C329 450.031 330.341 448.5 332.571 448.5H338.143H340.143V446.5V442H343.571V446.5V448.5H345.571H360.429H362.429V446.5V442H365.857V446.5ZM339.976 442.003C339.976 442.003 339.976 442.003 339.976 442.003L339.976 442.003ZM343.739 442.003C343.739 442.003 343.738 442.003 343.738 442.003L343.739 442.003ZM362.261 442.003C362.261 442.003 362.262 442.003 362.262 442.003L362.261 442.003ZM366.024 442.003C366.024 442.003 366.024 442.003 366.024 442.003L366.024 442.003ZM332.571 490C330.341 490 329 488.469 329 487.125V461.5H377V487.125C377 488.469 375.659 490 373.429 490H332.571ZM365.536 464C363.924 464 362.143 465.201 362.143 467.219V471.281C362.143 473.299 363.924 474.5 365.536 474.5H370.179C371.79 474.5 373.571 473.299 373.571 471.281V467.219C373.571 465.201 371.79 464 370.179 464H365.536ZM365.536 477C363.924 477 362.143 478.201 362.143 480.219V484.281C362.143 486.299 363.924 487.5 365.536 487.5H370.179C371.79 487.5 373.571 486.299 373.571 484.281V480.219C373.571 478.201 371.79 477 370.179 477H365.536ZM350.679 464C349.067 464 347.286 465.201 347.286 467.219V471.281C347.286 473.299 349.067 474.5 350.679 474.5H355.321C356.933 474.5 358.714 473.299 358.714 471.281V467.219C358.714 465.201 356.933 464 355.321 464H350.679ZM350.679 477C349.067 477 347.286 478.201 347.286 480.219V484.281C347.286 486.299 349.067 487.5 350.679 487.5H355.321C356.933 487.5 358.714 486.299 358.714 484.281V480.219C358.714 478.201 356.933 477 355.321 477H350.679ZM335.821 464C334.21 464 332.429 465.201 332.429 467.219V471.281C332.429 473.299 334.21 474.5 335.821 474.5H340.464C342.076 474.5 343.857 473.299 343.857 471.281V467.219C343.857 465.201 342.076 464 340.464 464H335.821ZM335.821 477C334.21 477 332.429 478.201 332.429 480.219V484.281C332.429 486.299 334.21 487.5 335.821 487.5H340.464C342.076 487.5 343.857 486.299 343.857 484.281V480.219C343.857 478.201 342.076 477 340.464 477H335.821Z" fill="#E2E2E2" stroke="#E2E2E2" stroke-width="4"/>
<path d="M893.857 30.5V32.5H895.857H901.428C903.659 32.5 905 34.0306 905 35.375V38.25H857V35.375C857 34.0306 858.34 32.5 860.571 32.5H866.142H868.142V30.5V26H871.571V30.5V32.5H873.571H888.428H890.428V30.5V26H893.857V30.5ZM867.975 26.0029C867.975 26.0029 867.975 26.0028 867.976 26.0026L867.975 26.0029ZM871.738 26.0029C871.738 26.0029 871.738 26.0028 871.737 26.0026L871.738 26.0029ZM890.261 26.0029C890.261 26.0029 890.261 26.0028 890.262 26.0026L890.261 26.0029ZM894.024 26.0029C894.024 26.0029 894.024 26.0028 894.023 26.0026L894.024 26.0029ZM860.571 74C858.34 74 857 72.4693 857 71.125V45.5H905V71.125C905 72.4693 903.659 74 901.428 74H860.571ZM893.535 48C891.924 48 890.142 49.2013 890.142 51.2187V55.2812C890.142 57.2986 891.924 58.5 893.535 58.5H898.178C899.79 58.5 901.571 57.2986 901.571 55.2812V51.2187C901.571 49.2013 899.79 48 898.178 48H893.535ZM893.535 61C891.924 61 890.142 62.2013 890.142 64.2187V68.2812C890.142 70.2986 891.924 71.5 893.535 71.5H898.178C899.79 71.5 901.571 70.2986 901.571 68.2812V64.2187C901.571 62.2013 899.79 61 898.178 61H893.535ZM878.678 48C877.067 48 875.285 49.2013 875.285 51.2187V55.2812C875.285 57.2986 877.067 58.5 878.678 58.5H883.321C884.932 58.5 886.714 57.2986 886.714 55.2812V51.2187C886.714 49.2013 884.932 48 883.321 48H878.678ZM878.678 61C877.067 61 875.285 62.2013 875.285 64.2187V68.2812C875.285 70.2986 877.067 71.5 878.678 71.5H883.321C884.932 71.5 886.714 70.2986 886.714 68.2812V64.2187C886.714 62.2013 884.932 61 883.321 61H878.678ZM863.821 48C862.21 48 860.428 49.2013 860.428 51.2187V55.2812C860.428 57.2986 862.21 58.5 863.821 58.5H868.464C870.075 58.5 871.857 57.2986 871.857 55.2812V51.2187C871.857 49.2013 870.075 48 868.464 48H863.821ZM863.821 61C862.21 61 860.428 62.2013 860.428 64.2187V68.2812C860.428 70.2986 862.21 71.5 863.821 71.5H868.464C870.075 71.5 871.857 70.2986 871.857 68.2812V64.2187C871.857 62.2013 870.075 61 868.464 61H863.821Z" fill="#E2E2E2" stroke="#E2E2E2" stroke-width="4"/>
<path d="M506.58 417.9V424.75H497.28V453H488.73V424.75H479.43V417.9H506.58Z" fill="#E2E2E2"/>
<path d="M923.579 312.9V319.75H914.279V348H905.729V319.75H896.429V312.9H923.579Z" fill="#E2E2E2"/>
<path d="M640.579 175.9V182.75H631.279V211H622.729V182.75H613.429V175.9H640.579Z" fill="#E2E2E2"/>
<path d="M978.58 747.9V754.75H969.28V783H960.73V754.75H951.43V747.9H978.58Z" fill="#E2E2E2"/>
<path d="M205.579 524.9V531.75H196.279V560H187.729V531.75H178.429V524.9H205.579Z" fill="#E2E2E2"/>
<path d="M622.5 540H583.5C581.015 540 579 537.817 579 535.125V505.875C579 503.182 581.015 501 583.5 501H622.5C624.985 501 627 503.182 627 505.875V535.125C627 537.817 624.985 540 622.5 540ZM589.5 506.687C586.601 506.687 584.25 509.234 584.25 512.375C584.25 515.516 586.601 518.062 589.5 518.062C592.4 518.062 594.75 515.516 594.75 512.375C594.75 509.234 592.4 506.687 589.5 506.687ZM585 533.5H621V522.125L612.795 513.237C612.356 512.761 611.644 512.761 611.204 513.237L598.5 527L593.295 521.362C592.856 520.886 592.144 520.886 591.704 521.362L585 528.625V533.5Z" fill="#E2E2E2"/>
<path d="M801.5 262H762.5C760.014 262 758 259.817 758 257.125V227.875C758 225.183 760.014 223 762.5 223H801.5C803.985 223 806 225.183 806 227.875V257.125C806 259.817 803.985 262 801.5 262ZM768.5 228.688C765.6 228.688 763.25 231.234 763.25 234.375C763.25 237.516 765.6 240.062 768.5 240.062C771.399 240.062 773.75 237.516 773.75 234.375C773.75 231.234 771.399 228.688 768.5 228.688ZM764 255.5H800V244.125L791.795 235.237C791.356 234.761 790.643 234.761 790.204 235.237L777.5 249L772.295 243.362C771.856 242.886 771.143 242.886 770.704 243.362L764 250.625V255.5Z" fill="#E2E2E2"/>
<path d="M70.5 63H31.5C29.0147 63 27 60.8174 27 58.125V28.875C27 26.1825 29.0147 24 31.5 24H70.5C72.9853 24 75 26.1825 75 28.875V58.125C75 60.8174 72.9853 63 70.5 63ZM37.5 29.6875C34.6005 29.6875 32.25 32.2338 32.25 35.375C32.25 38.5161 34.6005 41.0625 37.5 41.0625C40.3995 41.0625 42.75 38.5161 42.75 35.375C42.75 32.2338 40.3995 29.6875 37.5 29.6875ZM33 56.5H69V45.125L60.7955 36.2367C60.3562 35.7608 59.6438 35.7608 59.2044 36.2367L46.5 50L41.2955 44.3617C40.8562 43.8858 40.1438 43.8858 39.7044 44.3617L33 51.625V56.5Z" fill="#E2E2E2"/>
</svg>
