<svg width="293" height="293" viewBox="0 0 293 293" fill="none" xmlns="http://www.w3.org/2000/svg">
<path d="M293 146.5C293 144.72 292.968 142.947 292.906 141.183C290.107 62.7363 225.63 0 146.5 0C67.37 0 2.89338 62.7363 0.0949961 141.183C0.0320469 142.947 0 144.72 0 146.5C0 227.41 75.2541 287.684 146.5 287.684C219.037 287.684 293 227.41 293 146.5Z" fill="#459BFF"/>
<path d="M146.5 282.367C67.3711 282.367 2.90596 219.629 0.106441 141.183C0.0429199 142.949 0 144.719 0 146.5C0 227.41 65.5902 293 146.5 293C227.41 293 293 227.41 293 146.5C293 144.719 292.957 142.949 292.894 141.184C290.094 219.629 225.629 282.367 146.5 282.367Z" fill="#0677FD"/>
<path d="M268.632 141.183C265.849 76.1354 212.233 24.2538 146.5 24.2538C80.7667 24.2538 27.1511 76.1354 24.3676 141.183C24.2921 142.946 24.3671 260.97 146.5 260.97C268.633 260.97 268.708 142.946 268.632 141.183V141.183Z" fill="#E4EEF9"/>
<path d="M146.5 258.113C80.7673 258.113 27.1603 206.23 24.3757 141.183C24.3001 142.947 24.2538 144.717 24.2538 146.499C24.2538 214.014 78.9853 268.746 146.5 268.746C214.015 268.746 268.746 214.015 268.746 146.5C268.746 144.718 268.699 142.947 268.624 141.184C265.84 206.231 212.233 258.113 146.5 258.113V258.113Z" fill="#D5E0F2"/>
<path d="M150.939 53.5486V39.7987C150.939 37.3472 148.952 35.3597 146.5 35.3597C144.048 35.3597 142.061 37.3472 142.061 39.7987V53.5486C142.061 56.0002 144.048 57.9876 146.5 57.9876C148.952 57.9876 150.939 56.0002 150.939 53.5486Z" fill="#405B6C"/>
<path d="M142.061 239.451V253.201C142.061 255.653 144.048 257.64 146.5 257.64C148.952 257.64 150.939 255.653 150.939 253.201V239.451C150.939 237 148.952 235.012 146.5 235.012C144.048 235.012 142.061 237 142.061 239.451Z" fill="#405B6C"/>
<path d="M253.201 150.939C255.653 150.939 257.64 148.952 257.64 146.5C257.64 144.048 255.653 142.061 253.201 142.061H239.451C237 142.061 235.012 144.048 235.012 146.5C235.012 148.952 237 150.939 239.451 150.939H253.201Z" fill="#405B6C"/>
<path d="M39.7988 142.061C37.3466 142.061 35.3597 144.048 35.3597 146.5C35.3597 148.952 37.3466 150.939 39.7988 150.939H53.5486C56.0008 150.939 57.9877 148.952 57.9877 146.5C57.9877 144.048 56.0002 142.061 53.5486 142.061H39.7988Z" fill="#405B6C"/>
</svg>
