<svg width="29" height="29" viewBox="0 0 29 29" fill="none" xmlns="http://www.w3.org/2000/svg">
<circle cx="14.5" cy="14.5" r="13.5" fill="white" stroke="black" stroke-width="2"/>
<path d="M11.7365 8.77522H11.591C11.671 8.77522 11.7365 8.71239 11.7365 8.63559V8.77522H17.2635V8.63559C17.2635 8.71239 17.3289 8.77522 17.4089 8.77522H17.2635V10.0319H18.5725V8.63559C18.5725 8.01948 18.0507 7.51855 17.4089 7.51855H11.591C10.9492 7.51855 10.4274 8.01948 10.4274 8.63559V10.0319H11.7365V8.77522ZM20.8997 10.0319H8.10028C7.77848 10.0319 7.51849 10.2815 7.51849 10.5904V11.1489C7.51849 11.2257 7.58395 11.2886 7.66394 11.2886H8.76207L9.21114 20.4168C9.24023 21.012 9.75293 21.4815 10.3729 21.4815H18.627C19.2488 21.4815 19.7597 21.0138 19.7888 20.4168L20.2379 11.2886H21.336C21.416 11.2886 21.4815 11.2257 21.4815 11.1489V10.5904C21.4815 10.2815 21.2215 10.0319 20.8997 10.0319ZM18.4871 20.2249H10.5129L10.0729 11.2886H18.927L18.4871 20.2249Z" fill="black"/>
<path d="M10.2123 19.4698L9.73309 11.8031C9.6971 11.2274 10.1543 10.7407 10.7311 10.7407H18.2689C18.8457 10.7407 19.3029 11.2274 19.267 11.8031L18.7878 19.4698C18.7548 19.9968 18.3178 20.4074 17.7897 20.4074H11.2103C10.6822 20.4074 10.2452 19.9968 10.2123 19.4698Z" fill="#FF5959" stroke="black"/>
<path d="M11.2778 9.05566V10.2038H17.7222V9.05566C17.7222 8.50338 17.2745 8.05566 16.7222 8.05566H12.2778C11.7255 8.05566 11.2778 8.50338 11.2778 9.05566Z" fill="#FF5959" stroke="black"/>
</svg>
