<svg width="192" height="192" viewBox="0 0 192 192" fill="none" xmlns="http://www.w3.org/2000/svg">
<path d="M174.266 132.901L137.953 115.932C136.402 115.211 134.678 115.059 133.04 115.499C131.403 115.939 129.941 116.947 128.875 118.371L112.793 139.795C87.5546 126.82 67.2434 104.673 55.3437 77.1542L74.9917 59.6195C76.3005 58.4588 77.2269 56.8647 77.6305 55.0787C78.0342 53.2926 77.8932 51.4117 77.2288 49.7209L61.6661 10.1264C60.9369 8.30367 59.6474 6.81547 58.0197 5.91842C56.392 5.02137 54.5283 4.77169 52.7499 5.21244L19.0306 13.697C17.316 14.1287 15.7862 15.1813 14.6909 16.6831C13.5957 18.1849 12.9996 20.0471 13 21.9658C13 112.644 80.4062 186 163.44 186C165.2 186.001 166.909 185.352 168.287 184.157C169.665 182.963 170.631 181.295 171.027 179.425L178.808 142.658C179.21 140.71 178.976 138.669 178.147 136.889C177.318 135.108 175.946 133.698 174.266 132.901V132.901Z" fill="white"/>
</svg>
