<svg width="35" height="33" viewBox="0 0 35 33" fill="none" xmlns="http://www.w3.org/2000/svg">
<ellipse cx="17.5" cy="16.4706" rx="17.5" ry="16.4706" fill="#459BFF"/>
<path d="M27.5282 24.1157L23.7193 20.3075C23.5474 20.1356 23.3143 20.0401 23.0698 20.0401H22.4471C23.5015 18.6917 24.1281 16.9958 24.1281 15.1509C24.1281 10.762 20.5713 7.20587 16.1817 7.20587C11.7921 7.20587 8.23535 10.762 8.23535 15.1509C8.23535 19.5397 11.7921 23.0959 16.1817 23.0959C18.0269 23.0959 19.7232 22.4694 21.0718 21.4152V22.0378C21.0718 22.2823 21.1673 22.5153 21.3392 22.6872L25.1481 26.4954C25.5072 26.8545 26.0879 26.8545 26.4432 26.4954L27.5244 25.4144C27.8835 25.0554 27.8835 24.4748 27.5282 24.1157ZM16.1817 20.0401C13.4807 20.0401 11.2916 17.8552 11.2916 15.1509C11.2916 12.4503 13.4769 10.2616 16.1817 10.2616C18.8827 10.2616 21.0718 12.4465 21.0718 15.1509C21.0718 17.8514 18.8865 20.0401 16.1817 20.0401Z" fill="white"/>
</svg>
