<svg width="31" height="32" viewBox="0 0 31 32" fill="none" xmlns="http://www.w3.org/2000/svg">
<path d="M9.07143 22.5C9.07143 22.8978 9.24075 23.2794 9.54215 23.5607C9.84355 23.842 10.2523 24 10.6786 24H20.3214C20.7477 24 21.1565 23.842 21.4579 23.5607C21.7592 23.2794 21.9286 22.8978 21.9286 22.5V12H9.07143V22.5ZM18.1786 14.5C18.1786 14.3674 18.235 14.2402 18.3355 14.1464C18.4359 14.0527 18.5722 14 18.7143 14C18.8564 14 18.9926 14.0527 19.0931 14.1464C19.1936 14.2402 19.25 14.3674 19.25 14.5V21.5C19.25 21.6326 19.1936 21.7598 19.0931 21.8536C18.9926 21.9473 18.8564 22 18.7143 22C18.5722 22 18.4359 21.9473 18.3355 21.8536C18.235 21.7598 18.1786 21.6326 18.1786 21.5V14.5ZM14.9643 14.5C14.9643 14.3674 15.0207 14.2402 15.1212 14.1464C15.2217 14.0527 15.3579 14 15.5 14C15.6421 14 15.7783 14.0527 15.8788 14.1464C15.9793 14.2402 16.0357 14.3674 16.0357 14.5V21.5C16.0357 21.6326 15.9793 21.7598 15.8788 21.8536C15.7783 21.9473 15.6421 22 15.5 22C15.3579 22 15.2217 21.9473 15.1212 21.8536C15.0207 21.7598 14.9643 21.6326 14.9643 21.5V14.5ZM11.75 14.5C11.75 14.3674 11.8064 14.2402 11.9069 14.1464C12.0074 14.0527 12.1436 14 12.2857 14C12.4278 14 12.5641 14.0527 12.6645 14.1464C12.765 14.2402 12.8214 14.3674 12.8214 14.5V21.5C12.8214 21.6326 12.765 21.7598 12.6645 21.8536C12.5641 21.9473 12.4278 22 12.2857 22C12.1436 22 12.0074 21.9473 11.9069 21.8536C11.8064 21.7598 11.75 21.6326 11.75 21.5V14.5ZM22.4643 9.00001H18.4464L18.1317 8.41563C18.065 8.2907 17.9623 8.18561 17.8352 8.11218C17.708 8.03875 17.5614 7.99991 17.4118 8.00001H13.5848C13.4356 7.99947 13.2893 8.03817 13.1625 8.11168C13.0358 8.18519 12.9338 8.29053 12.8683 8.41563L12.5536 9.00001H8.53571C8.39363 9.00001 8.25737 9.05268 8.15691 9.14645C8.05644 9.24022 8 9.3674 8 9.5V10.5C8 10.6326 8.05644 10.7598 8.15691 10.8536C8.25737 10.9473 8.39363 11 8.53571 11H22.4643C22.6064 11 22.7426 10.9473 22.8431 10.8536C22.9436 10.7598 23 10.6326 23 10.5V9.5C23 9.3674 22.9436 9.24022 22.8431 9.14645C22.7426 9.05268 22.6064 9.00001 22.4643 9.00001V9.00001Z" fill="white"/>
</svg>
