<svg width="192" height="201" viewBox="0 0 192 201" fill="none" xmlns="http://www.w3.org/2000/svg">
<path d="M127.786 58.125V59.125H128.786H140.893C147.154 59.125 152 63.5437 152 68.7188V78.3125H41V68.7188C41 63.5437 45.8457 59.125 52.1071 59.125H64.2143H65.2143V58.125V47.5312C65.2143 46.2626 66.453 45 68.25 45H76.3214C78.1184 45 79.3571 46.2626 79.3571 47.5312V58.125V59.125H80.3571H112.643H113.643V58.125V47.5312C113.643 46.2626 114.882 45 116.679 45H124.75C126.547 45 127.786 46.2626 127.786 47.5312V58.125ZM52.1071 156C45.8457 156 41 151.581 41 146.406V87.375H152V146.406C152 151.581 147.154 156 140.893 156H52.1071ZM123.741 99.5C121.654 99.5 119.714 101.018 119.714 103.148V111.977C119.714 114.107 121.654 115.625 123.741 115.625H133.83C135.918 115.625 137.857 114.107 137.857 111.977V103.148C137.857 101.018 135.918 99.5 133.83 99.5H123.741ZM123.741 127.75C121.654 127.75 119.714 129.268 119.714 131.398V140.227C119.714 142.357 121.654 143.875 123.741 143.875H133.83C135.918 143.875 137.857 142.357 137.857 140.227V131.398C137.857 129.268 135.918 127.75 133.83 127.75H123.741ZM91.4554 99.5C89.3679 99.5 87.4286 101.018 87.4286 103.148V111.977C87.4286 114.107 89.3679 115.625 91.4554 115.625H101.545C103.632 115.625 105.571 114.107 105.571 111.977V103.148C105.571 101.018 103.632 99.5 101.545 99.5H91.4554ZM91.4554 127.75C89.3679 127.75 87.4286 129.268 87.4286 131.398V140.227C87.4286 142.357 89.3679 143.875 91.4554 143.875H101.545C103.632 143.875 105.571 142.357 105.571 140.227V131.398C105.571 129.268 103.632 127.75 101.545 127.75H91.4554ZM59.1696 99.5C57.0822 99.5 55.1429 101.018 55.1429 103.148V111.977C55.1429 114.107 57.0822 115.625 59.1696 115.625H69.2589C71.3463 115.625 73.2857 114.107 73.2857 111.977V103.148C73.2857 101.018 71.3463 99.5 69.2589 99.5H59.1696ZM59.1696 127.75C57.0822 127.75 55.1429 129.268 55.1429 131.398V140.227C55.1429 142.357 57.0822 143.875 59.1696 143.875H69.2589C71.3463 143.875 73.2857 142.357 73.2857 140.227V131.398C73.2857 129.268 71.3463 127.75 69.2589 127.75H59.1696Z" fill="black" stroke="black" stroke-width="2"/>
</svg>
