<svg width="192" height="192" viewBox="0 0 192 192" fill="none" xmlns="http://www.w3.org/2000/svg">
<path d="M95.8002 101.6C105.079 101.6 112.6 94.0785 112.6 84.8001C112.6 75.5217 105.079 68.0001 95.8002 68.0001C86.5219 68.0001 79.0002 75.5217 79.0002 84.8001C79.0002 94.0785 86.5219 101.6 95.8002 101.6Z" stroke="black" stroke-width="13" stroke-linecap="round" stroke-linejoin="round"/>
<path d="M95.8 40C83.9183 40 72.5232 44.72 64.1216 53.1216C55.72 61.5232 51 72.9183 51 84.8C51 95.3952 53.2512 102.328 59.4 110L95.8 152L132.2 110C138.349 102.328 140.6 95.3952 140.6 84.8C140.6 72.9183 135.88 61.5232 127.478 53.1216C119.077 44.72 107.682 40 95.8 40V40Z" stroke="black" stroke-width="13" stroke-linecap="round" stroke-linejoin="round"/>
</svg>
