<svg width="192" height="192" viewBox="0 0 192 192" fill="none" xmlns="http://www.w3.org/2000/svg">
<path d="M144.768 68.5794L125.482 50.0976C123.413 48.1143 120.606 47 117.679 47H56.0357C49.9408 47 45 51.7349 45 57.5759V135.132C45 140.973 49.9408 145.708 56.0357 145.708H136.964C143.059 145.708 148 140.973 148 135.132V76.0577C148 73.2528 146.837 70.5628 144.768 68.5794V68.5794ZM96.5 131.607C88.3736 131.607 81.7857 125.294 81.7857 117.506C81.7857 109.718 88.3736 103.405 96.5 103.405C104.626 103.405 111.214 109.718 111.214 117.506C111.214 125.294 104.626 131.607 96.5 131.607ZM118.571 64.5119V86.6596C118.571 88.1197 117.336 89.3036 115.813 89.3036H62.4732C60.9496 89.3036 59.7143 88.1197 59.7143 86.6596V63.7452C59.7143 62.285 60.9496 61.1012 62.4732 61.1012H115.012C115.744 61.1012 116.446 61.3797 116.963 61.8757L117.763 62.6424C118.02 62.8879 118.223 63.1793 118.361 63.5001C118.5 63.8209 118.571 64.1647 118.571 64.5119V64.5119Z" fill="white"/>
</svg>
