<svg width="192" height="192" viewBox="0 0 192 192" fill="none" xmlns="http://www.w3.org/2000/svg">
<path d="M169.8 55H22.2C17.6721 55 14 58.0601 14 61.8333V130.167C14 133.94 17.6721 137 22.2 137H169.8C174.328 137 178 133.94 178 130.167V61.8333C178 58.0601 174.328 55 169.8 55ZM26.3 126.75V113.083C35.3584 113.083 42.7 119.201 42.7 126.75H26.3ZM26.3 78.9167V65.25H42.7C42.7 72.7987 35.3584 78.9167 26.3 78.9167ZM96 116.5C84.6763 116.5 75.5 107.32 75.5 96C75.5 84.678 84.6789 75.5 96 75.5C107.321 75.5 116.5 84.678 116.5 96C116.5 107.324 107.319 116.5 96 116.5ZM165.7 126.75H149.3C149.3 119.201 156.642 113.083 165.7 113.083V126.75ZM165.7 78.9167C156.642 78.9167 149.3 72.7987 149.3 65.25H165.7V78.9167Z" fill="black"/>
</svg>
