<svg width="192" height="201" viewBox="0 0 192 201" fill="none" xmlns="http://www.w3.org/2000/svg">
<rect width="192" height="201" fill="white"/>
<path d="M128.445 145H50.0461C45.05 145 41 140.594 41 135.158V76.1053C41 70.6695 45.05 66.2632 50.0461 66.2632H128.445C133.441 66.2632 137.491 70.6695 137.491 76.1053V135.158C137.491 140.594 133.441 145 128.445 145ZM62.1075 77.7456C56.2788 77.7456 51.5537 82.8865 51.5537 89.2281C51.5537 95.5697 56.2788 100.711 62.1075 100.711C67.9361 100.711 72.6612 95.5697 72.6612 89.2281C72.6612 82.8865 67.9361 77.7456 62.1075 77.7456ZM53.0614 131.877H125.43V108.912L108.937 90.9679C108.054 90.007 106.622 90.007 105.738 90.9679L80.1996 118.754L69.7372 107.371C68.8541 106.411 67.4222 106.411 66.5389 107.371L53.0614 122.035V131.877Z" fill="black"/>
<circle cx="124.368" cy="84.0175" r="32.0175" fill="black" stroke="white" stroke-width="10"/>
<path d="M124.177 73.3125V85.0371M124.177 96.7617V85.0371M124.177 85.0371H113.663M124.177 85.0371H134.054" stroke="white" stroke-width="7" stroke-linecap="round" stroke-linejoin="round"/>
</svg>
