<svg width="38" height="38" viewBox="0 0 38 38" fill="none" xmlns="http://www.w3.org/2000/svg">
<g clip-path="url(#clip0)">
<path d="M19.8164 35.1796L19.757 35.1699C19.7653 35.1763 19.7751 35.1806 19.7855 35.1823C19.7959 35.184 19.8065 35.183 19.8164 35.1796Z" fill="black"/>
<path d="M33.3168 13.9368C33.2999 13.8472 33.2535 13.7659 33.1851 13.7057C33.1167 13.6455 33.0301 13.6099 32.9391 13.6045C32.8481 13.5992 32.7579 13.6244 32.6829 13.6761C32.6079 13.7278 32.5523 13.8031 32.5249 13.89C32.4987 13.9726 32.447 14.0447 32.3773 14.096C32.3075 14.1474 32.2233 14.1753 32.1367 14.1758H30.9886C30.9143 14.1759 30.8414 14.1556 30.7778 14.1171L29.1168 13.1211C29.0532 13.0827 28.9803 13.0624 28.906 13.0625H26.249C26.1681 13.0624 26.089 13.0864 26.0219 13.1315L22.7451 15.3158C22.6885 15.3535 22.6421 15.4047 22.6102 15.4649C22.5783 15.525 22.562 15.5921 22.5625 15.6602V18.758C22.5624 18.8323 22.5825 18.9052 22.6207 18.9688C22.6589 19.0325 22.7137 19.0846 22.7792 19.1195L27.0758 21.4129C27.1403 21.4476 27.1944 21.4989 27.2325 21.5615C27.2706 21.6242 27.2913 21.6958 27.2925 21.7691L27.3125 23.5125C27.3137 23.5847 27.3338 23.6553 27.371 23.7172C27.4081 23.7791 27.4609 23.8301 27.524 23.865L29.2504 24.8202C29.3143 24.8558 29.3677 24.9077 29.4048 24.9707C29.442 25.0337 29.4617 25.1055 29.4619 25.1787V28.7857C29.4619 28.8646 29.4847 28.9417 29.5274 29.0079C29.5702 29.0742 29.6312 29.1266 29.703 29.1591C29.7748 29.1915 29.8545 29.2025 29.9325 29.1908C30.0104 29.1791 30.0833 29.1451 30.1425 29.093C30.8386 28.48 31.8369 27.5849 31.9697 27.38C32.1894 27.0401 32.3955 26.692 32.588 26.3358C32.9866 25.5976 33.3242 24.8282 33.5974 24.035C34.5385 21.3104 33.7948 16.4127 33.3168 13.9368Z" fill="black"/>
<path d="M21.2563 22.4735L16.7044 19.0594C16.653 19.0209 16.5905 19 16.5263 19H14.3665C14.3296 19.0001 14.293 18.9928 14.2589 18.9787C14.2247 18.9645 14.1937 18.9438 14.1676 18.9177L13.1494 17.8994C13.1218 17.8718 13.089 17.85 13.053 17.8351C13.0169 17.8202 12.9783 17.8125 12.9393 17.8125H8.99162C8.93599 17.8125 8.8816 17.796 8.83534 17.7651C8.78908 17.7342 8.75303 17.6903 8.73174 17.6389C8.71045 17.5875 8.70488 17.5309 8.71573 17.4764C8.72658 17.4218 8.75338 17.3717 8.79272 17.3323L9.41764 16.7074C9.44374 16.6813 9.47474 16.6605 9.50888 16.6464C9.54301 16.6322 9.5796 16.625 9.61655 16.625H12.019C12.1484 16.625 12.2743 16.5828 12.3774 16.5047C12.4806 16.4266 12.5554 16.3169 12.5905 16.1923L13.1019 14.374C13.1128 14.3349 13.1316 14.2985 13.1571 14.2669C13.1826 14.2354 13.2143 14.2095 13.2503 14.1907L15.2891 13.1412C15.335 13.1175 15.3734 13.0816 15.4003 13.0375C15.4271 12.9934 15.4413 12.9427 15.4412 12.8911V11.9634C15.4413 11.9058 15.4589 11.8496 15.4917 11.8023L16.5753 10.2422C16.6078 10.1954 16.6539 10.1596 16.7074 10.1398L18.2237 9.57054C18.2773 9.55044 18.3236 9.51444 18.3562 9.46736C18.3888 9.42027 18.4063 9.36435 18.4063 9.30707V8.46097C18.4063 8.41458 18.3948 8.3689 18.3729 8.32799C18.3511 8.28708 18.3194 8.2522 18.2808 8.22644L16.7608 7.21558C16.7191 7.18811 16.6708 7.17213 16.6209 7.16926C16.571 7.1664 16.5212 7.17674 16.4766 7.19925L14.4074 8.23386C14.36 8.25724 14.3071 8.26678 14.2545 8.2614C14.202 8.25602 14.1521 8.23592 14.1105 8.20343L13.1293 7.42785C13.0958 7.40092 13.069 7.3667 13.0507 7.3278C13.0325 7.28889 13.0234 7.24634 13.0241 7.20338C13.0248 7.16042 13.0353 7.11819 13.0548 7.07991C13.0744 7.04164 13.1024 7.00833 13.1367 6.98254L13.9339 6.39547C13.9699 6.369 13.9992 6.33428 14.0191 6.29422C14.039 6.25415 14.0491 6.2099 14.0484 6.16515C14.0478 6.1204 14.0364 6.07646 14.0153 6.03699C13.9942 5.99753 13.964 5.96368 13.9272 5.93828L12.6855 5.07215C12.6425 5.04188 12.5919 5.02431 12.5394 5.02142C12.4869 5.01853 12.4347 5.03045 12.3886 5.05582C11.9396 5.30148 10.6222 6.02883 10.1546 6.35613C7.99123 7.87326 6.25018 9.91674 5.09588 12.2936C4.9608 12.5727 4.79381 12.857 4.77748 13.1635C4.76116 13.47 4.52069 14.1543 4.42049 14.4311C4.40698 14.4686 4.40157 14.5084 4.40465 14.5481C4.40772 14.5878 4.41919 14.6263 4.4383 14.6612L7.08717 19.5285C7.11101 19.5727 7.14641 19.6097 7.18959 19.6353L9.97651 21.3082C10.0127 21.3298 10.0435 21.3592 10.0668 21.3942C10.09 21.4293 10.1051 21.4692 10.1108 21.5109L10.669 25.5587C10.6744 25.5975 10.6879 25.6348 10.7084 25.6681C10.729 25.7015 10.7562 25.7302 10.7885 25.7525L12.9631 27.2472C13.0261 27.2905 13.0699 27.3565 13.0855 27.4313L14.2389 32.9086C14.2454 32.9408 14.2577 32.9715 14.2753 32.9992C14.3836 33.1743 14.8156 33.8156 15.3366 33.9106C15.2883 33.9239 15.2453 33.9544 15.1971 33.9685C15.3222 33.9905 15.4461 34.0192 15.5681 34.0546C15.7166 34.0946 15.865 34.1288 16.0135 34.1607C16.2458 34.2067 16.2688 34.2423 16.3801 34.036C16.5285 33.7599 16.6985 33.6649 16.8254 33.6308C16.8778 33.6187 16.9257 33.5921 16.9636 33.554C17.0016 33.516 17.028 33.468 17.0399 33.4155L17.7873 29.951C17.803 29.8784 17.8454 29.8143 17.906 29.7714L21.2459 27.4038C21.2847 27.3764 21.3163 27.34 21.3382 27.2978C21.36 27.2555 21.3714 27.2087 21.3713 27.1611V22.711C21.3717 22.6652 21.3616 22.6199 21.3416 22.5787C21.3217 22.5375 21.2925 22.5015 21.2563 22.4735Z" fill="black"/>
<path d="M19.4453 3.5625C19.4453 3.5625 19.1744 3.57809 19.1195 3.57957C18.7173 3.59145 18.316 3.61915 17.9157 3.6627C16.4565 3.821 15.0274 4.18714 13.6719 4.75C13.8522 4.87469 13.542 4.98898 13.542 4.98898L14.0274 5.9375H16.625L18.4063 6.82812L19.9649 5.9375L19.4453 3.5625Z" fill="black"/>
<path d="M26.2906 8.91077L27.4863 7.87171C27.5237 7.83923 27.5524 7.79789 27.5697 7.75147C27.5871 7.70505 27.5926 7.65503 27.5856 7.60596C27.5787 7.55689 27.5596 7.51034 27.53 7.47055C27.5005 7.43076 27.4615 7.399 27.4165 7.37816L26.0204 6.73023C25.9495 6.69714 25.8684 6.6934 25.7948 6.71981C25.7211 6.74622 25.6608 6.80064 25.6271 6.87124L25.0519 8.07433C25.0206 8.1401 25.0145 8.21509 25.0349 8.28502C25.0553 8.35495 25.1007 8.41495 25.1625 8.45359L25.9388 8.93898C25.9927 8.97253 26.056 8.9879 26.1193 8.98283C26.1827 8.97775 26.2427 8.9525 26.2906 8.91077Z" fill="black"/>
<path d="M31.8873 10.4403L31.4546 9.77235C31.4479 9.76196 31.442 9.75157 31.436 9.74044C31.3581 9.58087 30.7132 8.27833 30.1743 7.7729C29.7698 7.39067 29.6548 7.50051 29.6229 7.58512C29.6046 7.63191 29.5741 7.67293 29.5346 7.70387L27.3941 9.43391C27.3414 9.47656 27.2756 9.49987 27.2078 9.49997H26.0997C26.0607 9.49994 26.0221 9.50759 25.9861 9.52249C25.95 9.53739 25.9173 9.55924 25.8897 9.5868L24.9991 10.4774C24.9715 10.505 24.9496 10.5377 24.9346 10.5738C24.9197 10.6098 24.912 10.6485 24.912 10.6875C24.912 10.7265 24.9197 10.7651 24.9346 10.8012C24.9496 10.8372 24.9715 10.8699 24.9991 10.8975L25.8897 11.7881C25.9173 11.8157 25.95 11.8375 25.9861 11.8524C26.0221 11.8673 26.0607 11.875 26.0997 11.875H31.6787C31.7188 11.875 31.7585 11.8669 31.7953 11.8512C31.8322 11.8355 31.8655 11.8125 31.8933 11.7836C31.921 11.7547 31.9426 11.7204 31.9567 11.683C31.9709 11.6455 31.9773 11.6055 31.9756 11.5655L31.9348 10.5895C31.9326 10.5364 31.9162 10.4849 31.8873 10.4403Z" fill="black"/>
<path d="M19 5.34375C22.1595 5.34349 25.2213 6.43874 27.6637 8.44288C30.1062 10.447 31.7782 13.2361 32.3948 16.3348C33.0114 19.4335 32.5345 22.6501 31.0453 25.4366C29.5562 28.2231 27.1469 30.4071 24.2281 31.6164C21.3092 32.8256 18.0613 32.9854 15.0378 32.0685C12.0143 31.1515 9.40234 29.2146 7.64687 26.5877C5.8914 23.9609 5.10107 20.8066 5.41056 17.6623C5.72005 14.518 7.1102 11.5783 9.34414 9.34414C10.6091 8.07194 12.1139 7.06331 13.7713 6.37664C15.4288 5.68997 17.206 5.3389 19 5.34375ZM19 2.375C9.81914 2.375 2.375 9.81914 2.375 19C2.375 28.1809 9.81914 35.625 19 35.625C28.1809 35.625 35.625 28.1809 35.625 19C35.625 9.81914 28.1809 2.375 19 2.375Z" fill="black"/>
</g>
<defs>
<clipPath id="clip0">
<rect width="38" height="38" fill="white"/>
</clipPath>
</defs>
</svg>
