<svg width="29" height="29" viewBox="0 0 29 29" fill="none" xmlns="http://www.w3.org/2000/svg">
<circle cx="14.5" cy="14.5" r="13.5" fill="white" stroke="black" stroke-width="2"/>
<circle cx="14.5" cy="15.5" r="2" fill="black" stroke="#459BFF"/>
<path d="M11 13.1091C11 12.5568 10.5523 12.1091 10 12.1091C9.44772 12.1091 9 12.5568 9 13.1091H11ZM10 17.4727H9V17.9804L9.40977 18.28L10 17.4727ZM14.8462 23L13.9768 23.4942L14.9178 25.1494L15.7465 23.4352L14.8462 23ZM19 17.4727L19.6706 18.2145L20 17.9168V17.4727H19ZM20 7C20 6.44772 19.5523 6 19 6C18.4477 6 18 6.44772 18 7H20ZM9 13.1091V17.4727H11V13.1091H9ZM9.40977 18.28C11.6076 19.8869 12.561 21.0036 13.9768 23.4942L15.7155 22.5058C14.1753 19.7963 13.04 18.4567 10.5902 16.6655L9.40977 18.28ZM15.7465 23.4352C16.8989 21.0515 17.7433 19.9569 19.6706 18.2145L18.3294 16.7309C16.2184 18.6393 15.2148 19.9399 13.9458 22.5648L15.7465 23.4352ZM20 17.4727V7H18V17.4727H20Z" fill="#459BFF"/>
</svg>
