<svg width="223" height="229" viewBox="0 0 223 229" fill="none" xmlns="http://www.w3.org/2000/svg">
<path d="M3 223V6C3 4.34315 4.34315 3 6 3H149.645C151.302 3 152.645 4.34315 152.645 6V67.5526C163.733 74.0393 168.183 80.5404 173.184 96.8947C175.86 84.2577 179.424 77.7519 190.789 67.5526V6C190.789 4.34315 192.133 3 193.789 3H217.132C218.788 3 220.132 4.34314 220.132 5.99999V223C220.132 224.657 218.788 226 217.132 226H6C4.34315 226 3 224.657 3 223Z" fill="#FDFF96" stroke="#FDFF96" stroke-width="5"/>
<path d="M180.25 59.0792C180.25 63.1305 176.966 66.4148 172.915 66.4148C168.863 66.4148 165.579 63.1305 165.579 59.0792C165.579 55.0279 168.863 51.7437 172.915 51.7437C176.966 51.7437 180.25 55.0279 180.25 59.0792Z" fill="#459BFF"/>
<path d="M155.145 45.5461C155.145 44.1654 154.025 43.0461 152.645 43.0461C151.264 43.0461 150.145 44.1654 150.145 45.5461H155.145ZM152.645 67.5527H150.145V68.945L151.328 69.6781L152.645 67.5527ZM173.184 95.4277L170.841 96.298L173.789 104.236L175.625 95.9697L173.184 95.4277ZM190.789 67.5527L192.231 69.5953L193.289 68.8482V67.5527H190.789ZM193.289 14.7369C193.289 13.3562 192.17 12.2369 190.789 12.2369C189.409 12.2369 188.289 13.3562 188.289 14.7369H193.289ZM150.145 45.5461V67.5527H155.145V45.5461H150.145ZM151.328 69.6781C156.4 72.8188 159.853 75.7875 162.726 79.714C165.635 83.688 168.045 88.7695 170.841 96.298L175.528 94.5573C172.683 86.8972 170.082 81.2986 166.761 76.7609C163.405 72.1756 159.409 68.8011 153.961 65.4272L151.328 69.6781ZM175.625 95.9697C177.142 89.1391 178.721 84.4337 181.143 80.5225C183.546 76.6402 186.892 73.3627 192.231 69.5953L189.348 65.51C183.691 69.5017 179.773 73.2371 176.892 77.8903C174.028 82.5145 172.302 87.8671 170.744 94.8856L175.625 95.9697ZM193.289 67.5527V14.7369H188.289V67.5527H193.289Z" fill="black"/>
<path d="M3 27V205.515V224C3 225.105 3.89543 226 5 226H91.7822H150" stroke="black" stroke-width="5" stroke-linecap="round" stroke-linejoin="round"/>
<path d="M220.132 113.033V195.191" stroke="black" stroke-width="5" stroke-linecap="round" stroke-linejoin="round"/>
<path d="M58 3H125.487" stroke="black" stroke-width="5" stroke-linecap="round" stroke-linejoin="round"/>
</svg>
